<?xml version="1.0" encoding="utf-8"?>
<!-- Generator: Adobe Illustrator 26.0.2, SVG Export Plug-In . SVG Version: 6.00 Build 0)  -->
<svg version="1.1" id="Layer_1" xmlns="http://www.w3.org/2000/svg" xmlns:xlink="http://www.w3.org/1999/xlink" x="0px" y="0px"
	 viewBox="0 0 395 188" style="enable-background:new 0 0 395 188;" xml:space="preserve">
<style type="text/css">
	.st0{fill:url(#SVGID_1_);}
	.st1{fill:#3D3D3D;}
</style>
<g>
	
		<linearGradient id="SVGID_1_" gradientUnits="userSpaceOnUse" x1="96.9922" y1="152.5667" x2="214.2209" y2="35.3381" gradientTransform="matrix(1 0 0 -1 -0.2589 188.5334)">
		<stop  offset="0" style="stop-color:#FFED57"/>
		<stop  offset="0.1318" style="stop-color:#FF5D64"/>
		<stop  offset="0.3588" style="stop-color:#FF3254"/>
		<stop  offset="0.5455" style="stop-color:#FF416A"/>
		<stop  offset="0.578" style="stop-color:#E54278"/>
		<stop  offset="0.6904" style="stop-color:#8F43A7"/>
		<stop  offset="0.7697" style="stop-color:#5A45C4"/>
		<stop  offset="0.8081" style="stop-color:#4545CF"/>
	</linearGradient>
	<path class="st0" d="M186.4,93.8c-0.2-5.6,9.3-15.1,16.2-22.1c9.4-9.5,17.5-17.6,17.2-26.4c-0.1-3.6-1.7-6.9-4.8-9.7
		c-12.1-10.1-24.2,1.5-34.9,14.2c-10.2,12.1-21.6,28.6-33.6,28.1c-6.1-0.1-13.6-4.4-21-12.3c-7.5-8.1-12.2-16.6-14.2-21.8
		c5.8,2.9,15.8,10.5,24.9,20.2c2.2,2.2,3.7,3.4,5,4.2c0.2,0.1,0.4,0.2,0.7,0.4c0.1,0.1,0.3,0.1,0.4,0.2c1.3,0.6,2.8,1,4.4,0.9
		c2.5-0.2,5-1.8,7.4-4.6c-11.6-14.9-32.9-34.3-45.3-35.4c-4.4-0.4-7.1,1.3-8.7,2.9c-5.1,5.1-1.5,14.1-0.3,17
		c6.7,16.5,26.2,41,46.4,41.1c18,0.8,32.3-19,43.8-32.6c4.8-5.6,13.6-13.4,16.4-12.9c0,0,0.5,0.1,0.6,0.4c0.4,3-8.7,12.1-13.5,17
		c-9.9,10-20,20.2-19.9,31.2l0,0l0,0l0,0l0,0c-0.1,10.9,10.1,21.2,19.9,31.2c4.8,4.9,13.9,14,13.5,17c0,0.4-0.6,0.4-0.6,0.4
		c-2.8,0.5-11.7-7.2-16.4-12.9C178.5,116,161.3,96.1,143.3,97c-20.2,0.2-39.6,24.7-46.4,41.1c-1.2,2.9-4.9,11.9,0.3,17
		c1.5,1.5,4.3,3.2,8.7,2.9c12.4-1.1,33.7-20.5,45.3-35.4c-2.4-2.8-4.9-4.4-7.4-4.6c-1.6-0.1-3.1,0.3-4.4,0.9
		c-0.1,0.1-0.3,0.1-0.4,0.2c-0.2,0.1-0.4,0.2-0.7,0.4c-1.2,0.8-2.8,2-5,4.2c-9.1,9.7-19.1,17.3-24.9,20.2c2-5.1,6.7-13.7,14.2-21.8
		c7.4-7.9,14.8-12.3,21-12.3c12-0.5,26.3,16,36.5,28.1c10.7,12.7,22.8,24.3,34.9,14.2c3.1-2.7,4.7-6,4.8-9.7
		c0.3-8.8-7.8-16.9-17.2-26.4C195.6,109,186.2,99.4,186.4,93.8z"/>
	<path class="st1" d="M330.9,57c11.7,0,21.2,10,21.2,22.4s-9.5,22.4-21.2,22.4s-21.2-10-21.2-22.4S319.2,57,330.9,57 M330.9,44.2
		c-18.8,0-34.1,15.8-34.1,35.2s15.3,35.2,34.1,35.2c18.8,0,34.1-15.8,34.1-35.2S349.7,44.2,330.9,44.2L330.9,44.2z"/>
	<path class="st1" d="M98.6,80.9C97.9,62.1,82.9,47,64.6,47c-18.8,0-34.1,15.8-34.1,35.2s15.3,35.2,34.1,35.2c8,0,15.4-2.9,21.2-7.7
		v1.7c0,3.6,2.9,6.4,6.4,6.4c3.6,0,6.4-2.9,6.4-6.4V83v-1.7L98.6,80.9z M64.6,104.6c-11.7,0-21.2-10-21.2-22.4
		c0-12.3,9.5-22.4,21.2-22.4c11.5,0,20.8,9.6,21.2,21.5v1.6C85.3,95,76,104.6,64.6,104.6z"/>
	<path class="st1" d="M221.1,81.5v40.4c0,3.5,2.9,6.4,6.4,6.4s6.4-2.8,6.4-6.4v-14.7c5.8,4.7,13.2,7.6,21.2,7.6
		c18.8,0,34.1-15.6,34.1-34.8s-15.3-34.8-34.1-34.8S221,60.8,221,80L221.1,81.5z M255.2,102.1c-11.7,0-21.2-9.9-21.2-22.1
		s9.5-22.1,21.2-22.1s21.2,9.9,21.2,22.1S266.9,102.1,255.2,102.1z"/>
</g>
</svg>
